<?xml version="1.0" encoding="utf-8"?>
<!-- Generator: Adobe Illustrator 16.0.0, SVG Export Plug-In . SVG Version: 6.00 Build 0)  -->
<svg version="1.2" baseProfile="tiny" id="Layer_1" xmlns="http://www.w3.org/2000/svg" xmlns:xlink="http://www.w3.org/1999/xlink"
	 x="0px" y="0px" width="472.826px" height="58.696px" viewBox="0 0 472.826 58.696" xml:space="preserve">
<g>
	<path fill="#FFFFFF" d="M51.987,44.401c0,4.417-1.729,7.29-5.184,8.61c-1.955,0.752-5.65,1.128-11.09,1.128H14.346V16.452h21.368
		c5.349,0,9.045,0.406,11.09,1.218c3.455,1.413,5.184,4.313,5.184,8.699c0,2.646-0.586,4.652-1.758,6.019
		c-1.173,1.368-3.065,2.352-5.681,2.953c2.615,0.571,4.508,1.563,5.681,2.976C51.401,39.729,51.987,41.758,51.987,44.401z
		 M50.319,26.369c0-3.124-0.81-5.228-2.429-6.311c-1.979-1.322-6.04-1.983-12.184-1.983H16.014v16.408h18.569
		c5.036,0,8.452-0.27,10.25-0.812C48.49,32.561,50.319,30.126,50.319,26.369z M50.319,44.401c0-3.064-0.974-5.168-2.923-6.31
		c-2.249-1.323-6.52-1.985-12.814-1.985H16.014v16.41h19.693c6.174,0,10.236-0.63,12.184-1.894
		C49.51,49.57,50.319,47.498,50.319,44.401z"/>
	<path fill="#FFFFFF" d="M68.732,16.301H66.93L47.228,53.535l1.438,0.754l4.483-8.419l3.083-5.859H56.22l2.559-4.837l0.377-0.719
		l8.675-16.4l7.553,14.207l5.044,9.37l2.29,4.239l4.557,8.419l1.425-0.754L68.732,16.301z"/>
	<path fill="#FFFFFF" d="M175.582,16.301h-1.803l-19.7,37.234l1.438,0.754L160,45.87l3.081-5.86h-0.012l2.559-4.837l0.378-0.719
		l8.674-16.399l7.554,14.207l5.044,9.369l2.29,4.24l4.557,8.419l1.425-0.754L175.582,16.301z"/>
	<path fill="#FFFFFF" d="M122.199,35.295c0,6.943-1.684,11.872-5.049,14.787c-3.126,2.703-8.235,4.057-15.327,4.057
		c-7.093,0-12.202-1.354-15.328-4.057c-3.366-2.916-5.048-7.844-5.048-14.787c0-6.941,1.683-11.87,5.048-14.786
		c3.126-2.705,8.234-4.058,15.328-4.058c7.092,0,12.201,1.353,15.327,4.058C120.515,23.425,122.199,28.354,122.199,35.295z
		 M120.531,35.295c0-6.521-1.516-11.074-4.542-13.659c-2.789-2.374-7.51-3.561-14.166-3.561c-6.656,0-11.378,1.187-14.167,3.561
		c-3.028,2.585-4.542,7.139-4.542,13.659c0,6.491,1.528,11.029,4.587,13.614c2.788,2.406,7.495,3.607,14.122,3.607
		c6.625,0,11.332-1.202,14.121-3.607C119.001,46.324,120.531,41.786,120.531,35.295z"/>
	<path fill="#FFFFFF" d="M158.622,44.401c0,4.419-1.73,7.29-5.185,8.612c-1.954,0.75-5.65,1.125-11.089,1.125H120.98V16.453h21.368
		c5.349,0,9.046,0.404,11.089,1.216c3.455,1.413,5.185,4.314,5.185,8.701c0,2.645-0.586,4.651-1.758,6.018s-3.065,2.352-5.68,2.952
		c2.615,0.572,4.508,1.563,5.68,2.977C158.036,39.729,158.622,41.758,158.622,44.401z M156.955,26.37
		c0-3.125-0.809-5.229-2.429-6.312c-1.979-1.321-6.04-1.982-12.184-1.982h-19.694v16.408h18.569c5.036,0,8.453-0.27,10.251-0.812
		C155.125,32.561,156.955,30.126,156.955,26.37z M156.955,44.401c0-3.064-0.975-5.168-2.923-6.31
		c-2.249-1.323-6.52-1.984-12.815-1.984h-18.569v16.409h19.694c6.174,0,10.236-0.63,12.184-1.892
		C156.146,49.572,156.955,47.498,156.955,44.401z"/>
	<path fill="#FFFFFF" d="M231.73,44.399c0,4.419-1.728,7.289-5.186,8.612c-1.953,0.75-5.65,1.125-11.089,1.125h-21.367V16.451
		h21.367c5.349,0,9.044,0.407,11.089,1.219c3.458,1.412,5.186,4.311,5.186,8.699c0,2.645-0.586,4.651-1.759,6.019
		c-1.171,1.368-3.065,2.351-5.681,2.953c2.615,0.571,4.51,1.563,5.681,2.975C231.145,39.729,231.73,41.757,231.73,44.399z
		 M230.062,26.369c0-3.124-0.81-5.229-2.428-6.311c-1.979-1.323-6.039-1.984-12.183-1.984h-19.694v16.41h18.568
		c5.035,0,8.453-0.271,10.251-0.812C228.233,32.561,230.062,30.126,230.062,26.369z M230.062,44.399c0-3.063-0.974-5.167-2.923-6.31
		c-2.249-1.321-6.52-1.983-12.814-1.983h-18.568v16.408h19.694c6.173,0,10.234-0.63,12.183-1.892
		C229.252,49.57,230.062,47.495,230.062,44.399z"/>
</g>
<path fill="#FFFFFF" d="M334.664,53.81h-35.614V16.934h1.668v35.253h33.946V53.81z"/>
<path fill="#FFFFFF" d="M360.966,35.219c0,6.943-1.685,11.872-5.049,14.787c-3.125,2.704-8.234,4.057-15.326,4.057
	c-7.093,0-12.202-1.354-15.328-4.057c-3.365-2.916-5.048-7.844-5.048-14.787c0-6.941,1.683-11.87,5.048-14.786
	c3.126-2.705,8.235-4.058,15.328-4.058c7.092,0,12.201,1.354,15.326,4.058C359.282,23.349,360.966,28.278,360.966,35.219z
	 M359.298,35.219c0-6.52-1.514-11.074-4.542-13.659c-2.788-2.375-7.51-3.561-14.165-3.561c-6.657,0-11.379,1.187-14.166,3.561
	c-3.028,2.585-4.543,7.139-4.543,13.659c0,6.491,1.529,11.03,4.587,13.614c2.788,2.406,7.496,3.608,14.122,3.608
	c6.624,0,11.333-1.202,14.12-3.608C357.769,46.249,359.298,41.71,359.298,35.219z"/>
<path fill="#FFFFFF" d="M400.41,39.745c0,9.646-6.763,14.47-20.286,14.47c-7.093,0-12.201-1.337-15.326-4.012
	c-3.367-2.915-5.05-7.844-5.05-14.787c0-6.973,1.686-11.915,5.055-14.831c3.129-2.705,8.243-4.058,15.344-4.058
	c11.162,0,17.916,3.488,20.264,10.458l-1.532,0.542c-1.263-3.667-3.787-6.251-7.573-7.754c-2.767-1.082-6.478-1.623-11.136-1.623
	c-6.642,0-11.374,1.203-14.198,3.607c-3.037,2.615-4.555,7.167-4.555,13.659c0,6.491,1.516,11.03,4.548,13.613
	c2.82,2.375,7.55,3.562,14.183,3.562c5.312,0,9.425-0.707,12.337-2.12c3.963-1.922,6.063-5.228,6.304-9.916h-7.708v-1.623h9.331
	V39.745z"/>
<path fill="#FFFFFF" d="M457.325,27.573l-1.532,0.45c-1.2-3.876-3.69-6.597-7.474-8.159c-2.821-1.142-6.619-1.713-11.393-1.713
	c-6.664,0-11.392,1.188-14.182,3.561c-3.034,2.585-4.55,7.139-4.55,13.659c0,6.492,1.516,11.029,4.55,13.614
	c2.82,2.405,7.548,3.607,14.182,3.607c4.713,0,8.481-0.571,11.303-1.713c3.812-1.533,6.303-4.194,7.475-7.979l1.576,0.45
	c-1.353,4.21-4.043,7.184-8.069,8.926c-3.064,1.292-7.167,1.939-12.307,1.939c-7.094,0-12.201-1.354-15.327-4.057
	c-3.366-2.915-5.05-7.845-5.05-14.787c0-6.941,1.684-11.87,5.05-14.786c3.126-2.705,8.233-4.058,15.327-4.058
	c5.168,0,9.301,0.662,12.396,1.983C453.357,20.286,456.032,23.306,457.325,27.573z"/>
<path fill="#FFFFFF" d="M421.487,54.214h-27.589v-1.623h13.299v-34.44h-13.299v-1.623h27.589v1.623h-12.622v34.44h12.622V54.214z"/>
<path fill="#FFDA6B" d="M260.834,54.139l14.817-0.28l-1.397-6.01l-0.699-2.655v-2.517l-0.279-3.214l0.279-3.773l1.258-3.076
	l3.913-1.257l3.635-0.699l1.817-0.77h1.396h2.377h1.258l1.258-0.628h1.398v-2.517l0.559-1.453l0.139-0.364l1.398-0.838h-0.698
	l-2.236,2.655l0.14,1.258l-1.537,0.699l-1.678,0.141l-0.898,0.104l-1.233,0.026l-1.127,0.079h-0.444c0,0,0.89-0.761,0.995-0.734
	c0.104,0.027,1.887-0.681,1.887-0.681l0.682-0.577l0.76-0.314l0.892-0.55l0.444-0.419l0.21-0.184V25.04l0.576-0.13l0.839-0.079
	l0.288-0.575l0.314-1.024l0.314-0.577h-0.314l-0.838,1.731l-0.943,0.263l-0.551,0.183l-0.21,0.707l-0.602,0.446l-0.604,0.157
	l-0.629,0.393l-0.681,0.394l-1.022,0.314l-0.733,0.341l-0.944,0.078l-0.76,0.262l-0.839,0.341l-1.021,0.053l-0.655-0.026
	l-2.567,0.185l-1.888,0.891l-1.729,0.157l-1.521,0.366h-1.153l0.053-0.681l0.943-1.101l0.942-1.049l0.473-0.787l0.734-0.627
	l-0.105-1.103l0.942-0.418l0.944-0.63l1.416-0.263l1.311,0.21l0.942,0.158l0.629-0.314l0.786-0.996l0.682-0.577l1.153-0.575h0.785
	h1.049l1.258,0.785l0.524,0.158l0.996,0.366l0.629,0.262l0.576-0.054l0.367-0.103l0.025-0.263l-0.89,0.104l-0.786-0.288l-0.63-0.314
	l-1.021-0.498l-0.761-0.419l-0.864-0.289h-0.55l-1.049,0.237l-0.499,0.287l-0.942,0.499l-0.943,0.55l-0.76,0.34l-0.761-0.104
	l-1.074-0.21l-1.022-0.287l-0.812,0.287l-0.942,0.314l0.026-1.493l0.524-0.603l0.854-0.682l0.716-0.367h0.761l1.101,0.446
	l0.787,0.236l0.655,0.078l1.022,0.078l0.916-0.025l0.604-0.236l0.524-0.734l1.284-0.707l1.151-0.235l0.84-0.262h0.55l0.552-0.865
	l0.76-0.655l0.497-0.446l0.498-0.263l-0.394-0.236l-0.942,0.525l-0.655,0.656l-0.63,0.627l-0.759,0.289l-0.682,0.105l-0.786,0.104
	l-0.682,0.263l-0.55,0.394l-0.524,0.472l-0.812,0.367c0,0-0.63-0.053-0.708-0.053c-0.079,0-1.127-0.157-1.127-0.157l-1.153-0.263
	l-0.996-0.55l-0.55,0.052l-0.944,0.21l-1.283,0.524l-0.524,0.604l-0.445-0.367v-0.551l0.34-0.341l0.158-0.444l0.026-0.812
	l-0.079-0.813l-0.053-0.551l0.263-0.13l0.942-0.159l1.416,0.421h0.786l0.733,0.104l0.524,0.235l0.577,0.315l0.628,0.629l0.054,0.575
	l0.209,0.316l0.157-0.131l-0.052-0.368l0.156-0.209c0,0,0.42,0.052,0.524,0.077c0.104,0.028,0.524,0.079,0.524,0.079l0.367,0.053
	l0.235-0.157l-0.394-0.235l-0.629-0.052l-0.576-0.236l-0.604-0.42l-0.498-0.444l-0.156-0.236l0.602-0.131l0.499-0.552l0.419-0.261
	l-0.13-0.524l-0.341-0.865l0.078-0.654l0.184-0.813l0.733-0.551l0.156-0.366h-0.313l-0.524,0.419l-0.394,0.472l-0.208,0.733
	l0.025,0.578l0.079,0.759l-0.131,0.865l-0.473,0.132l-1.861,0.156l-1.65-0.288l-0.812-0.131l-0.812-0.472l-0.444-0.55l0.838-0.708
	l0.288-0.682l0.105-0.812l0.436-0.472l0.402-0.733l0.655-0.314l0.707-0.184l0.944-0.708l0.655-0.498l0.367-0.577l-0.314-0.184
	l-0.446,0.394l-0.733,0.498c0,0-0.104,0.315-0.262,0.341c-0.158,0.026-1.049,0.34-1.049,0.34l-0.55,0.289l-0.629,0.264
	c0,0-0.42,0.392-0.42,0.471c0,0.078-0.341,0.761-0.341,0.761l-0.158,0.497l-0.968,1.1l-0.577,0.524l-0.576,0.63
	c0,0-0.184,0.681-0.184,0.759c0,0.079,0.445,0.97,0.445,0.97s-0.342,0.761-0.42,0.788c-0.078,0.025-0.262,0.629-0.262,0.629
	l-0.078,0.603l-0.342,0.838l-1.127-1.337l-0.471-0.34l-0.576-0.367l-0.866-0.342l-0.969-0.392l-0.656-0.42l-0.863-0.445l-0.604-0.21
	l-0.576-0.104l-0.393-0.525l0.157-0.498l0.263-0.761l0.208-0.812l0.027-0.314l0.105-0.812l-0.446-0.89l-0.053-1.076l0.158-1.205
	l0.157-0.629l0.289-0.551l-0.054-0.628l-0.052-0.237l-0.289,0.132l-0.026,0.445l-0.078,0.524l-0.236,0.55l-0.077,0.604l-0.054,0.733
	l-0.288,0.603l-0.63-0.053l-0.995-0.078l-1.336-0.235l-0.944-0.236l-0.97-0.288l-0.55-0.393l-0.367-0.342l-0.498-0.366l-0.184,0.157
	l0.394,0.472l0.892,0.707l0.496,0.342l0.866,0.078l0.498,0.157l-0.918,0.445l-0.682,0.341l-0.654,0.629l-0.419,0.288l0.131,0.288
	l0.445-0.235l0.497-0.445l0.446-0.395l0.786-0.313l0.628-0.288l0.473-0.025l0.656,0.078l0.603,0.156l0.89,0.315l0.42,0.603v0.604
	c0,0,0,0.391,0,0.602c0,0.21-0.156,0.864-0.156,0.864l-0.29,0.709l-0.471,0.549l-0.263-0.025l-1.52-0.366l-1.809-0.105l-1.152-0.499
	l-1.546-0.864l-0.918-0.655l-0.63-0.444l-0.916-0.08l-0.944-0.183l-0.603-0.158l-0.682-0.472l-0.812-0.627l-0.576-0.446
	l-0.289-0.314l-0.183,0.052l0.131,0.394l0.445,0.418l0.891,0.734l0.812,0.525l0.55,0.288c0,0,0.524,0.025,0.604,0.052
	c0.078,0.027,0.733,0.185,0.733,0.185l-0.263,0.26l-0.497,0.054h-0.341l0.078,0.132l0.577,0.052l0.471-0.026l0.289-0.078h0.367
	l0.629,0.419l0.394,0.313l0.576,0.446c0,0,0.55,0.445,0.629,0.445c0.078,0,0.577,0.21,0.577,0.21l0.392,0.288l-0.13,0.654
	l-0.866,0.289l-0.654,0.315l-0.943,0.392l-0.97,0.524l-0.314,0.184l-0.838-0.314l-0.944-0.104l-1.022-0.21l-0.995-0.287
	l-1.179-0.788l-1.599-0.602l-1.233-0.865l-0.838-1.336l0.577-1.493V9.814l-0.263-0.026l0.027,0.394l-0.342,0.394l-0.183,0.603
	l-0.132,0.209l-0.236-0.42l-0.472-0.654l-0.235-0.603l0.131-0.551l0.052-0.367l-0.183,0.053l-0.131,0.683l-0.235,0.208l-0.498,0.026
	l-0.446-0.234l-0.523-0.08l-0.524-0.313l-0.551-0.342l-0.445-0.393L242.5,7.98l-0.209,0.184l0.681,0.839l0.367,0.156l0.97,0.498
	l0.682,0.42l0.576,0.156l0.708,0.708l0.313,0.55l0.524,0.813l0.367,0.655l0.367,0.419l0.394,0.603l0.759,0.472l0.421,0.288
	l0.418,0.236l0.497,0.157l0.998,0.288l0.524,0.315l0.838,0.261l0.576,0.235l0.838,0.316l0.787,0.104l0.21,0.288h1.047l0.682,0.104
	l0.734-0.786l1.311-0.289l0.865-0.314l0.785-0.182l0.342-0.553l0.523-0.366h1.126l0.865,0.314l0.498,0.394l1.049,0.393l0.786,0.131
	l0.917,0.395l1.049,0.288l0.76,0.209c0,0,0.681,0.708,0.759,0.786c0.079,0.079,0.919,0.629,0.919,0.629l0.523,0.341l0.523,0.472
	l0.604,0.604l0.131,0.55l-0.078,0.629c0,0-0.236,0.366-0.341,0.446c-0.104,0.078-0.577,0.392-0.577,0.392l-0.394,0.211l-0.366,0.864
	l-0.419,0.524l-1.603,0.366l-1.7,0.839l-0.419-0.052l-0.604-0.84l-0.523-0.917L264.2,22l-0.419-0.497l-0.578-0.552l-0.707-0.708
	l-1.389-0.104l-0.63-0.156l-0.732-0.551l-0.917-0.604c0,0-0.839-0.077-0.944-0.077s-1.049,0.444-1.049,0.444l-1.048,0.368
	l-1.153,0.34c0,0-0.576,0.367-0.655,0.419c-0.077,0.053-0.89,0.473-0.89,0.473l-1.023,0.313l-1.44,0.812l-1.572,0.707l-1.259,0.551
	c0,0-0.996,0.393-1.022,0.473c-0.025,0.079-0.575,0.523-0.575,0.523h-0.761l-0.498-0.393l-0.288-0.342l-0.236-0.445l-0.419-0.444
	l-0.393-0.524l-0.55-0.76l-0.524-0.472l-0.236,0.156l0.367,0.498c0,0,0.183,0.262,0.209,0.341s0.393,0.577,0.393,0.577l0.288,0.681
	l0.42,0.629l0.551,0.708l0.577,0.472l0.891,0.104l0.917-0.524l0.839-0.366l1.311-0.84l0.812-0.131l0.733-0.576l-0.76,1.153
	l-0.418,0.682l-0.316,0.183l0.29,0.106l0.444-0.577l0.497-0.63l0.524-0.549l0.447-0.499c0,0,0.759-0.288,0.864-0.341
	c0.104-0.052,0.732-0.288,0.812-0.313c0.079-0.027,0.707-0.263,0.707-0.263l0.733-0.262l1.102-0.419l1.127-0.446
	c0,0,1.126-0.366,1.205-0.393s0.394,0.287,0.394,0.287s0.263,0.264,0.263,0.341c0,0.079-0.105,0.447-0.105,0.447l-0.524,0.392
	L257.124,22l-0.943,0.628l-0.682,0.577l-0.917,0.262l-0.787,0.551c0,0-0.393,0.708-0.471,0.733
	c-0.079,0.027-1.049-0.025-1.049-0.025l-0.603,0.157l-1.285,0.026l-0.654,0.026h-0.812h-0.577l-0.681,0.184
	c0,0-1.101,0.287-1.18,0.341c-0.079,0.051,0.235,0.184,0.235,0.184l0.63-0.106l0.576-0.157l0.577-0.131c0,0,0.734,0.026,0.812,0
	c0.079-0.025,1.073,0.235,1.073,0.235l1.783,0.026l1.153-0.156l0.812-0.235l0.996-0.524l1.362-0.551l0.472-0.497l0.419-0.368
	l0.786-0.366l0.262,0.366l0.263,0.97l0.733,0.812l-0.262,0.523l-0.21,0.524l0.053,0.472l0.786,0.446l0.786,0.681l-1.127,0.08
	l-1.074-0.027l-1.599-0.236l-1.547,0.053l-1.65-0.053l-1.39,0.158l-0.575,0.236l-1.075,0.263c0,0-0.918,0.339-0.995,0.365
	c-0.079,0.027-0.866,0.132-0.866,0.132l-1.049,0.026l-0.995,0.183l-1.049,0.42l-0.681-0.027l-1.049-0.471l-1.1-0.996l-0.944-0.708
	l-0.996-0.943l-0.995-0.838l-0.812-0.498l-0.63-0.524l-0.576-0.682l-0.341,0.052v0.342l0.289,0.419l0.707,0.682l0.629,0.235
	c0,0,0.471,0.315,0.523,0.42c0.054,0.105,0.839,0.733,0.839,0.733l0.682,0.603l0.733,0.865l0.315,0.393l-0.053,0.263l-0.394,0.158
	c0,0-0.262,0.052-0.367,0.052c-0.104,0,0.078,0.262,0.078,0.262l0.237,0.288l0.498-0.131l0.707-0.184l0.235,0.105l0.342,0.341
	l0.313,0.209v0.306l-0.524,0.297l-0.288,0.104l-0.444-0.261l-0.446-0.185l-0.025,0.157l0.261,0.342c0,0,0.027,0.131,0.157,0.156
	c0.132,0.026,0.708,0.262,0.708,0.262l1.049-0.105l0.968-0.103l0.316-0.421c0,0,0.603-0.278,0.707-0.244
	c0.105,0.035,0.891-0.008,0.97,0c0.078,0.009,1.021,0,1.021,0l0.996-0.044l0.97-0.603l0.944-0.55l0.917-0.026l1.152-0.079
	l0.733-0.025l1.127,0.131l1.023-0.105c0,0,0.497,0.55,0.55,0.655c0.052,0.105,0.839,0.264,0.839,0.264l1.049-0.132
	c0,0,0.916,0,0.995-0.026c0.078-0.026,1.44,0.262,1.44,0.262l0.367,0.42c0,0-0.34,0.261-0.42,0.314
	c-0.077,0.052-0.812,0.287-0.812,0.287l-1.127,0.263l-0.576,0.234l-0.393,0.342l0.131,0.394l0.55,0.026c0,0,0.682,0,0.917-0.026
	s1.259-0.211,1.259-0.211l0.444-0.183c0,0,0.394,0.288,0.447,0.367c0.052,0.079,0.523,0.863,0.523,0.863l0.341,0.866l0.156,0.63
	l0.551,0.654l0.524,0.682l0.105,0.864c0,0,0.025,0.761,0.025,0.839s0,2.332,0,2.332l-0.209,2.49l-0.552,1.415l-0.263,0.918
	l-0.366,0.943l-0.053,1.31l-0.287,1.283c0,0-0.209,1.285-0.237,1.364c-0.025,0.078-0.34,0.969-0.34,0.969s-0.236,0.708-0.236,0.786
	c0,0.079-0.393,0.918-0.393,0.918l-0.079,0.733l-0.053,0.577l-0.104,0.681L260.834,54.139z"/>
</svg>
